# xmcd
#
# Track frame offsets:
#	150
#	27596
#	40730
#	57902
#	64299
#	83936
#	92280
#	105551
#
# Disc length: 1949 seconds
#
# Revision: 1
# Processed by: cddbd v1.4PL0 Copyright (c) Steve Scherf et al.
# Submitted via: audiograbber 1.80.04
#
DISCID=60079b08
DTITLE=Boxharp - The Tailored Soldier
DYEAR=1900
DGENRE=
TTITLE0=Church in Calhoun
TTITLE1=Old Word in the Watherwheel
TTITLE2=Ventura Whites
TTITLE3=To See the Barn from Here
TTITLE4=19 Smoketree Lane
TTITLE5=Filming the Desert
TTITLE6=All These Deserters
TTITLE7=Cinema Gong
EXTD=
EXTT0=
EXTT1=
EXTT2=
EXTT3=
EXTT4=
EXTT5=
EXTT6=
EXTT7=
PLAYORDER=
